<?xml version="1.0" encoding="UTF-8" standalone="no"?>
<svg
   viewBox="0 0 210 297"
   version="1.1"
   id="svg1"
   xml:space="preserve"
   xmlns="http://www.w3.org/2000/svg"
   xmlns:svg="http://www.w3.org/2000/svg"><defs
     id="defs1"><filter
       style="color-interpolation-filters:sRGB"
       id="filter6"
       x="-0.01913008"
       y="-0.025646505"
       width="1.0382516"
       height="1.0511709"><feGaussianBlur
         stdDeviation="0.15104223"
         id="feGaussianBlur6" /></filter></defs><path
     style="opacity:0.522604;fill:#0efb08;fill-opacity:1;stroke:#6cbbeb;stroke-width:0.129486;stroke-linecap:round;stroke-linejoin:round;stroke-opacity:0.192453;paint-order:stroke fill markers"
     d="m 118.36293,140.97596 c 0,0 -2.55139,1.57893 -3.55226,4.44688 -1.73381,4.96817 -2.15089,10.40297 -0.58719,13.85694 1.5637,3.45396 6.26377,6.25871 11.04686,6.17014 4.78308,-0.0886 8.39747,-2.34111 10.60303,-8.44225 1.51625,-4.19434 -1.70146,-8.49505 -4.11593,-11.81034 -1.40651,-1.93126 -6.87604,-13.8151 -2.56404,-19.47517 0.7316,-0.96033 -4.62386,4.82928 -5.91982,9.90284 -1.29596,5.07356 2.52418,13.96951 -1.5983,11.28117 -1.90378,-1.2415 -4.04749,-2.2404 -3.31235,-5.93021 z"
     id="path4-5"
     transform="matrix(1.8143482,0,0,1.8143482,-91.576756,-132.14066)" /><path
     style="opacity:0.522604;fill:#f8fc75;fill-opacity:1;stroke:#6cbbeb;stroke-width:0.165218;stroke-linecap:round;stroke-linejoin:round;stroke-opacity:0.192453;paint-order:stroke fill markers"
     d="m 122.76815,143.06627 c -5.00462,4.47582 -3.7267,10.62553 -1.73149,15.03264 1.99518,4.40707 8.56764,10.0572 14.6706,9.94419 6.10298,-0.11304 10.36953,-4.36808 12.72339,-9.62111 2.32707,-5.19319 -0.77964,-11.48408 -5.13663,-19.21222 -11.82005,-20.9656 1.3946,13.29393 -11.86691,7.34395 -2.64589,-1.18713 -6.07551,-5.79793 -8.65896,-3.48745 z"
     id="path4-8" /><path
     style="opacity:0.94822335;fill:#f4fbf9;fill-opacity:0.97606653;stroke:#6cbbeb;stroke-width:0.165218;stroke-linecap:round;stroke-linejoin:round;stroke-opacity:0.192453;paint-order:stroke fill markers;filter:url(#filter6)"
     d="m 125.98053,152.47115 c -5.10323,4.56401 0.28502,15.70989 8.45967,15.55852 6.10298,-0.11304 13.75639,-3.95826 12.72339,-9.62111 0.38791,-8.00097 -15.77107,-9.62709 -21.18306,-5.93741 z"
     id="path4-8-2" /><ellipse
     style="opacity:0.879188;fill:#0dfb08;fill-opacity:0.521569;stroke:#6cbbeb;stroke-width:0.313701;stroke-linecap:round;stroke-linejoin:round;stroke-opacity:0.192453;paint-order:stroke fill markers"
     id="path6"
     cx="125.28324"
     cy="120.82848"
     rx="1.0124483"
     ry="1.186011" /></svg>
